<svg width="125" height="109" viewBox="0 0 125 109" fill="none" xmlns="http://www.w3.org/2000/svg">
<rect width="125" height="109" rx="28" fill="#CBCBCB" fill-opacity="0.81"/>
<g style="mix-blend-mode:hard-light" filter="url(#filter0_i_8_74)">
<rect width="125" height="56" rx="28" fill="url(#paint0_linear_8_74)" fill-opacity="0.45"/>
<rect width="125" height="56" rx="28" fill="black" fill-opacity="0.34"/>
</g>
<rect width="125" height="109" rx="28" fill="url(#paint1_linear_8_74)" fill-opacity="0.55"/>
<rect width="125" height="109" rx="28" fill="black" fill-opacity="0.09"/>
<g style="mix-blend-mode:luminosity" filter="url(#filter1_i_8_74)">
<path d="M23.1479 40.0516V45.9373C23.1479 47.0851 23.1746 47.8325 23.228 48.1795H18.2432V19.5516H23.1479V20.8528C24.7629 19.7184 26.311 19.1512 27.7925 19.1512C29.2739 19.1512 30.5885 19.3581 31.7363 19.7718C32.8841 20.1855 33.8918 20.8262 34.7593 21.6937C36.6678 23.5755 37.6221 26.2581 37.6221 29.7415C37.6221 32.0504 37.0815 34.1124 36.0005 35.9276C35.0796 37.4624 33.805 38.6902 32.1768 39.6111C30.7354 40.4253 29.1738 40.8323 27.4922 40.8323C25.8105 40.8323 24.3625 40.5721 23.1479 40.0516ZM23.1479 35.0067C24.1623 35.8608 25.4769 36.2879 27.0918 36.2879C29.7344 36.2879 31.4427 35.0133 32.2168 32.4642C32.4837 31.5967 32.6172 30.6691 32.6172 29.6815C32.6172 28.6805 32.5238 27.8864 32.3369 27.2991C32.1501 26.6985 31.9032 26.1847 31.5962 25.7576C31.3026 25.3172 30.9689 24.9568 30.5952 24.6766C30.2215 24.383 29.8411 24.1494 29.4541 23.9759C28.7734 23.6689 28.0728 23.5154 27.3521 23.5154C26.6313 23.5154 25.884 23.6823 25.1099 24.0159C24.3358 24.3496 23.6818 24.7967 23.1479 25.3572V35.0067ZM41.2056 13.5858C42.2733 11.9175 43.3877 10.4494 44.5488 9.18146L48.853 12.5648C48.2791 13.2721 47.7453 13.9661 47.2515 14.6468C47.2515 14.6468 46.7376 15.3742 45.71 16.8289L41.2056 13.5858ZM46.4707 38.2298C46.4707 39.3776 46.4974 40.125 46.5508 40.472H41.4658V19.5516H46.4707V38.2298ZM56.7808 38.2298C56.7808 39.3776 56.8075 40.125 56.8608 40.472H51.7759V10.6429H56.7808V38.2298ZM67.0708 38.2298C67.0708 39.3776 67.0975 40.125 67.1509 40.472H62.0659V10.6429H67.0708V38.2298Z" fill="#EBEBEB" fill-opacity="0.99"/>
</g>
<g style="mix-blend-mode:luminosity">
<path d="M32.9897 92.3003C29.2261 92.3003 26.39 91.613 24.4814 90.2383C24.5081 89.8379 24.5482 89.3841 24.6016 88.877L24.7817 87.4355C24.8885 86.488 24.9552 85.9007 24.9819 85.6738C25.0086 85.4336 25.0286 85.3068 25.042 85.2935C25.0553 85.2668 25.1621 85.3735 25.3623 85.6138C25.5625 85.8407 25.9429 86.1209 26.5034 86.4546C27.064 86.7882 27.7113 87.0819 28.4453 87.3354C30.0335 87.8826 31.6885 88.1562 33.4102 88.1562C35.7191 88.1562 36.8735 87.3888 36.8735 85.854C36.8735 85.3602 36.6533 84.9932 36.2129 84.7529C35.4255 84.3525 34.2643 84.0522 32.7295 83.8521C31.208 83.6385 29.9601 83.3315 28.9858 82.9312C28.0116 82.5308 27.2174 82.0503 26.6035 81.4897C25.4691 80.4354 24.9019 79.054 24.9019 77.3457C24.9019 75.2637 25.7026 73.6287 27.3042 72.4409C28.8924 71.2664 31.0879 70.6792 33.8906 70.6792C36.6667 70.6792 39.0356 71.4666 40.9976 73.0415C40.9041 73.3885 40.804 73.7222 40.6973 74.0425C40.3903 74.9233 40.1634 75.5573 40.0166 75.9443L39.5562 77.1255C39.5295 77.2323 39.5094 77.2856 39.4961 77.2856C39.4694 77.2856 39.3626 77.1455 39.1758 76.8652C38.335 75.891 37.027 75.2503 35.252 74.9434C34.7048 74.8366 34.1442 74.7832 33.5703 74.7832C31.1413 74.7832 29.9268 75.5173 29.9268 76.9854C29.9268 77.4925 30.1803 77.8796 30.6875 78.1465C31.6351 78.6536 32.9297 79.0273 34.5713 79.2676C36.2262 79.5078 37.4808 79.8348 38.335 80.2485C39.1891 80.6489 39.8765 81.1361 40.397 81.71C41.3579 82.751 41.8384 84.1323 41.8384 85.854C41.8384 87.7358 41.0843 89.264 39.5762 90.4385C38.0013 91.6797 35.8058 92.3003 32.9897 92.3003ZM51.278 91.5796V97.4653C51.278 98.6131 51.3047 99.3605 51.3581 99.7075H46.3732V71.0796H51.278V72.3809C52.8929 71.2464 54.4411 70.6792 55.9225 70.6792C57.404 70.6792 58.7186 70.8861 59.8664 71.2998C61.0142 71.7135 62.0218 72.3542 62.8893 73.2217C64.7978 75.1035 65.7521 77.7861 65.7521 81.2695C65.7521 83.5785 65.2116 85.6405 64.1305 87.4556C63.2096 88.9904 61.9351 90.2183 60.3068 91.1392C58.8654 91.9533 57.3039 92.3604 55.6222 92.3604C53.9406 92.3604 52.4925 92.1001 51.278 91.5796ZM51.278 86.5347C52.2923 87.3888 53.6069 87.8159 55.2218 87.8159C57.8644 87.8159 59.5727 86.5413 60.3468 83.9922C60.6138 83.1247 60.7472 82.1971 60.7472 81.2095C60.7472 80.2085 60.6538 79.4144 60.467 78.8271C60.2801 78.2266 60.0332 77.7127 59.7262 77.2856C59.4326 76.8452 59.099 76.4849 58.7253 76.2046C58.3516 75.911 57.9712 75.6774 57.5841 75.5039C56.9035 75.1969 56.2028 75.0435 55.4821 75.0435C54.7614 75.0435 54.014 75.2103 53.2399 75.5439C52.4658 75.8776 51.8118 76.3247 51.278 76.8853V86.5347ZM68.0447 81.6499C68.0447 80.1818 68.2917 78.7804 68.7855 77.4458C69.2926 76.0978 70.0133 74.9233 70.9476 73.9224C72.9896 71.7603 75.6388 70.6792 78.8953 70.6792C82.1385 70.6792 84.7143 71.7002 86.6229 73.7422C88.4513 75.6908 89.3655 78.2199 89.3655 81.3296C89.3655 84.4393 88.4246 87.0151 86.5428 89.0571C84.5542 91.2192 81.9183 92.3003 78.6351 92.3003C75.2451 92.3003 72.5892 91.2393 70.6673 89.1172C68.9189 87.182 68.0447 84.6929 68.0447 81.6499ZM72.9095 81.5298C72.9095 82.3706 73.0496 83.1847 73.3299 83.9722C73.6102 84.7596 74.0106 85.4336 74.5311 85.9941C75.6388 87.2087 77.0936 87.8159 78.8953 87.8159C80.5636 87.8159 81.8782 87.222 82.8392 86.0342C83.7734 84.8864 84.2405 83.3916 84.2405 81.5498C84.2405 79.6813 83.7601 78.1732 82.7991 77.0254C81.7715 75.7975 80.3634 75.1836 78.575 75.1836C76.7599 75.1836 75.3385 75.8376 74.3109 77.1455C73.3766 78.3467 72.9095 79.8081 72.9095 81.5298ZM102.429 87.5957C104.15 87.5957 105.332 87.1486 105.972 86.2544H106.132L106.192 90.8989C105.538 91.5529 104.324 91.9867 102.549 92.2002C102.068 92.2669 101.468 92.3003 100.747 92.3003C100.04 92.3003 99.2656 92.1668 98.4248 91.8999C97.5973 91.633 96.89 91.1992 96.3027 90.5986C95.0882 89.3574 94.4809 87.4155 94.4809 84.7729V75.6841H91.458C91.4446 75.297 91.438 74.9033 91.438 74.5029V71.4199C91.438 71.193 91.4446 71.0796 91.458 71.0796H94.4809V65.374H99.3857V71.0796H104.891V75.6841H99.3857V83.8521C99.3857 85.9474 99.9663 87.1419 101.127 87.4355C101.501 87.5423 101.935 87.5957 102.429 87.5957ZM109.106 92C109.226 91.1859 109.286 90.4652 109.286 89.8379C109.286 89.2106 109.279 88.7835 109.266 88.5566C109.266 88.3164 109.259 88.0828 109.246 87.856C109.232 87.6291 109.219 87.4155 109.206 87.2153L109.146 86.7148H114.951C114.911 87.222 114.891 87.6357 114.891 87.9561L114.851 88.7969C114.851 89.0505 114.851 89.5309 114.851 90.2383C114.851 90.9323 114.885 91.5195 114.951 92H109.106Z" fill="#D0D0D0" fill-opacity="0.98"/>
</g>
<defs>
<filter id="filter0_i_8_74" x="0" y="0" width="141" height="73.3" filterUnits="userSpaceOnUse" color-interpolation-filters="sRGB">
<feFlood flood-opacity="0" result="BackgroundImageFix"/>
<feBlend mode="normal" in="SourceGraphic" in2="BackgroundImageFix" result="shape"/>
<feColorMatrix in="SourceAlpha" type="matrix" values="0 0 0 0 0 0 0 0 0 0 0 0 0 0 0 0 0 0 127 0" result="hardAlpha"/>
<feMorphology radius="2" operator="dilate" in="SourceAlpha" result="effect1_innerShadow_8_74"/>
<feOffset dx="16" dy="24"/>
<feGaussianBlur stdDeviation="9.65"/>
<feComposite in2="hardAlpha" operator="arithmetic" k2="-1" k3="1"/>
<feColorMatrix type="matrix" values="0 0 0 0 1 0 0 0 0 1 0 0 0 0 1 0 0 0 0.22 0"/>
<feBlend mode="normal" in2="shape" result="effect1_innerShadow_8_74"/>
</filter>
<filter id="filter1_i_8_74" x="18.2432" y="9.18146" width="48.9077" height="42.998" filterUnits="userSpaceOnUse" color-interpolation-filters="sRGB">
<feFlood flood-opacity="0" result="BackgroundImageFix"/>
<feBlend mode="normal" in="SourceGraphic" in2="BackgroundImageFix" result="shape"/>
<feColorMatrix in="SourceAlpha" type="matrix" values="0 0 0 0 0 0 0 0 0 0 0 0 0 0 0 0 0 0 127 0" result="hardAlpha"/>
<feOffset dy="4"/>
<feGaussianBlur stdDeviation="3.5"/>
<feComposite in2="hardAlpha" operator="arithmetic" k2="-1" k3="1"/>
<feColorMatrix type="matrix" values="0 0 0 0 0.152941 0 0 0 0 0.152941 0 0 0 0 0.152941 0 0 0 0.11 0"/>
<feBlend mode="normal" in2="shape" result="effect1_innerShadow_8_74"/>
</filter>
<linearGradient id="paint0_linear_8_74" x1="0" y1="28" x2="125" y2="28" gradientUnits="userSpaceOnUse">
<stop stop-color="#004DFF"/>
<stop offset="1" stop-color="#888888"/>
</linearGradient>
<linearGradient id="paint1_linear_8_74" x1="0" y1="54.5" x2="125" y2="54.5" gradientUnits="userSpaceOnUse">
<stop offset="0.250546"/>
<stop offset="1" stop-color="#000DFF" stop-opacity="0.3"/>
</linearGradient>
</defs>
</svg>
