<svg width="125" height="109" viewBox="0 0 125 109" fill="none" xmlns="http://www.w3.org/2000/svg">
<rect width="125" height="109" rx="28" fill="url(#paint0_linear_4_10)" fill-opacity="0.45"/>
<rect width="125" height="109" rx="28" fill="black" fill-opacity="0.09"/>
<g filter="url(#filter0_i_4_10)">
<rect width="125" height="57" rx="28.5" fill="url(#paint1_linear_4_10)" fill-opacity="0.45"/>
<rect width="125" height="57" rx="28.5" fill="black" fill-opacity="0.07"/>
</g>
<g filter="url(#filter1_i_4_10)">
<path d="M23.1479 42.0516V47.9373C23.1479 49.0851 23.1746 49.8325 23.228 50.1795H18.2432V21.5516H23.1479V22.8528C24.7629 21.7184 26.311 21.1512 27.7925 21.1512C29.2739 21.1512 30.5885 21.3581 31.7363 21.7718C32.8841 22.1855 33.8918 22.8262 34.7593 23.6937C36.6678 25.5755 37.6221 28.2581 37.6221 31.7415C37.6221 34.0504 37.0815 36.1124 36.0005 37.9276C35.0796 39.4624 33.805 40.6902 32.1768 41.6111C30.7354 42.4253 29.1738 42.8323 27.4922 42.8323C25.8105 42.8323 24.3625 42.5721 23.1479 42.0516ZM23.1479 37.0067C24.1623 37.8608 25.4769 38.2879 27.0918 38.2879C29.7344 38.2879 31.4427 37.0133 32.2168 34.4642C32.4837 33.5967 32.6172 32.6691 32.6172 31.6815C32.6172 30.6805 32.5238 29.8864 32.3369 29.2991C32.1501 28.6985 31.9032 28.1847 31.5962 27.7576C31.3026 27.3172 30.9689 26.9568 30.5952 26.6766C30.2215 26.383 29.8411 26.1494 29.4541 25.9759C28.7734 25.6689 28.0728 25.5154 27.3521 25.5154C26.6313 25.5154 25.884 25.6823 25.1099 26.0159C24.3358 26.3496 23.6818 26.7967 23.1479 27.3572V37.0067ZM41.2056 15.5858C42.2733 13.9175 43.3877 12.4494 44.5488 11.1815L48.853 14.5648C48.2791 15.2721 47.7453 15.9661 47.2515 16.6468C47.2515 16.6468 46.7376 17.3742 45.71 18.8289L41.2056 15.5858ZM46.4707 40.2298C46.4707 41.3776 46.4974 42.125 46.5508 42.472H41.4658V21.5516H46.4707V40.2298ZM56.7808 40.2298C56.7808 41.3776 56.8075 42.125 56.8608 42.472H51.7759V12.6429H56.7808V40.2298ZM67.0708 40.2298C67.0708 41.3776 67.0975 42.125 67.1509 42.472H62.0659V12.6429H67.0708V40.2298Z" fill="white" fill-opacity="0.7"/>
</g>
<path d="M36.9814 91.7578C36.9814 92.9056 37.0081 93.653 37.0615 94H32.0767V65.3721H36.9814V74.6411C38.7031 73.3332 40.4782 72.6792 42.3066 72.6792C44.5488 72.6792 46.3506 73.4199 47.7119 74.9014C49.0465 76.3828 49.7139 78.3447 49.7139 80.7871V88.7549C49.7139 91.0104 49.7472 92.3651 49.814 92.8188C49.8807 93.2726 49.9674 93.5662 50.0742 93.6997C50.1943 93.8332 50.2944 93.9533 50.3745 94.0601L50.3345 94.1401C49.2534 94.0467 48.466 94 47.9722 94H46.5508C46.1104 94 45.5298 94.02 44.8091 94.0601V82.4688C44.8091 80.627 44.402 79.2656 43.5879 78.3848C42.974 77.7174 42.1398 77.3838 41.0854 77.3838C39.5239 77.3838 38.1559 78.2847 36.9814 80.0864V91.7578ZM67.9917 92.1782C66.2834 93.5929 64.4215 94.3003 62.4062 94.3003C60.2441 94.3003 58.5492 93.5729 57.3213 92.1182C56.1468 90.7035 55.5596 88.7616 55.5596 86.2925V78.3447C55.5596 75.6755 55.4995 74.1473 55.3794 73.7603C55.2726 73.3599 55.1925 73.1063 55.1392 72.9995C55.7531 73.0529 56.3937 73.0796 57.061 73.0796H58.7227C59.1631 73.0796 59.7437 73.0596 60.4644 73.0195V84.6108C60.4644 87.3602 61.2118 88.9551 62.7065 89.3955C63.1603 89.529 63.6541 89.5957 64.188 89.5957C65.7629 89.5957 67.0308 89.0218 67.9917 87.874V73.0796H72.9565V91.4375C72.9565 92.612 73.0099 93.4661 73.1167 94H67.9917V92.1782ZM84.3677 73.8403C85.8625 73.0662 87.3906 72.6792 88.9521 72.6792C90.5137 72.6792 91.855 72.9261 92.9761 73.4199C94.1105 73.9004 95.1048 74.5944 95.959 75.502C97.8141 77.5173 98.7417 80.0664 98.7417 83.1494C98.7417 86.526 97.734 89.2487 95.7188 91.3174C93.7835 93.306 91.3745 94.3003 88.4917 94.3003C85.9559 94.3003 83.8672 93.6396 82.2256 92.3184C80.3838 90.8236 79.4629 88.7616 79.4629 86.1323V64.2109H84.3677V73.8403ZM84.3677 86.0723C84.3677 88.4212 85.8291 89.5957 88.752 89.5957C90.18 89.5957 91.3812 88.9684 92.3555 87.7139C93.3431 86.4326 93.8369 84.8377 93.8369 82.9292C93.8369 81.0073 93.3164 79.5592 92.2754 78.585C91.3411 77.7174 90.0866 77.2837 88.5117 77.2837C87.5641 77.2837 86.5164 77.604 85.3687 78.2446C85.0083 78.4448 84.6746 78.665 84.3677 78.9053V86.0723ZM102.385 94C102.505 93.1859 102.565 92.4652 102.565 91.8379C102.565 91.2106 102.559 90.7835 102.545 90.5566C102.545 90.3164 102.539 90.0828 102.525 89.856C102.512 89.6291 102.499 89.4155 102.485 89.2153L102.425 88.7148H108.231C108.191 89.222 108.171 89.6357 108.171 89.9561L108.131 90.7969C108.131 91.0505 108.131 91.5309 108.131 92.2383C108.131 92.9323 108.164 93.5195 108.231 94H102.385Z" fill="#FEFEFE" fill-opacity="0.95"/>
<defs>
<filter id="filter0_i_4_10" x="0" y="0" width="141" height="74.3" filterUnits="userSpaceOnUse" color-interpolation-filters="sRGB">
<feFlood flood-opacity="0" result="BackgroundImageFix"/>
<feBlend mode="normal" in="SourceGraphic" in2="BackgroundImageFix" result="shape"/>
<feColorMatrix in="SourceAlpha" type="matrix" values="0 0 0 0 0 0 0 0 0 0 0 0 0 0 0 0 0 0 127 0" result="hardAlpha"/>
<feMorphology radius="2" operator="dilate" in="SourceAlpha" result="effect1_innerShadow_4_10"/>
<feOffset dx="16" dy="24"/>
<feGaussianBlur stdDeviation="9.65"/>
<feComposite in2="hardAlpha" operator="arithmetic" k2="-1" k3="1"/>
<feColorMatrix type="matrix" values="0 0 0 0 1 0 0 0 0 1 0 0 0 0 1 0 0 0 0.22 0"/>
<feBlend mode="normal" in2="shape" result="effect1_innerShadow_4_10"/>
</filter>
<filter id="filter1_i_4_10" x="18.2432" y="11.1815" width="48.9077" height="42.998" filterUnits="userSpaceOnUse" color-interpolation-filters="sRGB">
<feFlood flood-opacity="0" result="BackgroundImageFix"/>
<feBlend mode="normal" in="SourceGraphic" in2="BackgroundImageFix" result="shape"/>
<feColorMatrix in="SourceAlpha" type="matrix" values="0 0 0 0 0 0 0 0 0 0 0 0 0 0 0 0 0 0 127 0" result="hardAlpha"/>
<feOffset dy="4"/>
<feGaussianBlur stdDeviation="3.5"/>
<feComposite in2="hardAlpha" operator="arithmetic" k2="-1" k3="1"/>
<feColorMatrix type="matrix" values="0 0 0 0 0.152941 0 0 0 0 0.152941 0 0 0 0 0.152941 0 0 0 0.11 0"/>
<feBlend mode="normal" in2="shape" result="effect1_innerShadow_4_10"/>
</filter>
<linearGradient id="paint0_linear_4_10" x1="0" y1="54.5" x2="125" y2="54.5" gradientUnits="userSpaceOnUse">
<stop offset="0.250546"/>
<stop offset="1" stop-color="#000DFF" stop-opacity="0.3"/>
</linearGradient>
<linearGradient id="paint1_linear_4_10" x1="0" y1="28.5" x2="125" y2="28.5" gradientUnits="userSpaceOnUse">
<stop stop-color="#004DFF"/>
<stop offset="1" stop-color="#888888"/>
</linearGradient>
</defs>
</svg>
